<?xml version="1.0" encoding="iso-8859-1"?>
<!-- Uploaded to: SVG Repo, www.svgrepo.com, Generator: SVG Repo Mixer Tools -->
<svg version="1.1" id="Layer_1" xmlns="http://www.w3.org/2000/svg" xmlns:xlink="http://www.w3.org/1999/xlink" 
	 viewBox="0 0 512 512" xml:space="preserve">
<g>
	<rect x="60.04" y="370.598" style="fill:#FBB429;" width="391.915" height="64.755"/>
	<polygon style="fill:#FBB429;" points="81.34,322.881 430.659,322.881 451.959,370.593 60.04,370.593 	"/>
	<path style="fill:#FBB429;" d="M81.34,322.881h349.319l-27.28-185.402c-10.757-73.108-73.483-127.28-147.38-127.28l0,0
		c-73.896,0-136.622,54.172-147.38,127.281L81.34,322.881z"/>
</g>
<path style="fill:#FF757C;" d="M258.555,501.801h-5.112c-36.703,0-66.456-29.753-66.456-66.456l0,0h138.024l0,0
	C325.011,472.048,295.258,501.801,258.555,501.801z"/>
<g>
	<path style="fill:#4D4D4D;" d="M462.141,370.555c-0.005-1.399-0.28-2.803-0.869-4.12l-20.727-46.429l-27.076-184.011
		c-5.56-37.78-24.537-72.331-53.438-97.291C331.132,13.745,294.185,0,255.999,0s-75.132,13.745-104.033,38.705
		s-47.878,59.511-53.438,97.291L71.454,320.007l-20.727,46.429c-0.588,1.317-0.864,2.72-0.869,4.12
		c-0.01,0.023-0.017,0.038-0.017,0.038v64.752c0,5.633,4.566,10.199,10.199,10.199h117.448c5.005,37.46,37.148,66.455,75.956,66.455
		h5.113c38.808,0,70.95-28.995,75.956-66.456H451.96c5.633,0,10.199-4.566,10.199-10.199v-64.752
		C462.158,370.593,462.151,370.579,462.141,370.555z M87.956,333.081h336.086l12.193,27.313H75.763L87.956,333.081z
		 M118.711,138.964c9.945-67.593,68.967-118.566,137.288-118.566s127.343,50.973,137.288,118.566l25.561,173.718H93.15
		L118.711,138.964z M258.555,491.602h-5.113c-27.538,0-50.518-19.889-55.33-46.058h115.772
		C309.074,471.712,286.093,491.602,258.555,491.602z M70.239,425.146v-44.353h371.52v44.353H70.239z"/>
	<path style="fill:#4D4D4D;" d="M263.667,285.419H149.5c-5.633,0-10.199,4.566-10.199,10.199s4.566,10.199,10.199,10.199h114.168
		c5.633,0,10.199-4.566,10.199-10.199S269.3,285.419,263.667,285.419z"/>
	<path style="fill:#4D4D4D;" d="M122.236,285.419h-5.963c-5.633,0-10.199,4.566-10.199,10.199s4.566,10.199,10.199,10.199h5.963
		c5.633,0,10.199-4.566,10.199-10.199S127.869,285.419,122.236,285.419z"/>
</g>
</svg>