<?xml version="1.0" encoding="iso-8859-1"?>
<!-- Uploaded to: SVG Repo, www.svgrepo.com, Generator: SVG Repo Mixer Tools -->
<svg height="800px" width="800px" version="1.1" id="Layer_1" xmlns="http://www.w3.org/2000/svg" xmlns:xlink="http://www.w3.org/1999/xlink" 
	 viewBox="0 0 511.999 511.999" xml:space="preserve">
<polygon style="fill:#FBB429;" points="10.199,468.657 256,43.344 501.801,468.657 "/>
<g>
	<circle style="fill:#1FCFC1;" cx="256" cy="397.545" r="27.762"/>
	<path style="fill:#1FCFC1;" d="M240.327,338.799h31.347c6.677,0,12.091-5.414,12.091-12.091V187.518
		c0-6.677-5.414-12.091-12.091-12.091h-31.347c-6.677,0-12.091,5.414-12.091,12.091v139.192
		C228.235,333.387,233.648,338.799,240.327,338.799z"/>
</g>
<g>
	<path style="fill:#4D4D4D;" d="M501.801,478.856H10.199c-3.644,0-7.012-1.945-8.834-5.102c-1.822-3.157-1.821-7.046,0.003-10.201
		L247.169,38.239c1.823-3.154,5.188-5.096,8.83-5.096c3.642,0,7.008,1.942,8.83,5.096l245.801,425.314
		c1.824,3.156,1.825,7.045,0.003,10.201C508.813,476.912,505.445,478.856,501.801,478.856z M27.873,458.458h456.253L256,63.726
		L27.873,458.458z"/>
	<path style="fill:#4D4D4D;" d="M143.456,319.236c-1.732,0-3.487-0.442-5.094-1.371c-4.877-2.819-6.545-9.057-3.727-13.934
		l4.127-7.139c2.818-4.877,9.058-6.546,13.934-3.727c4.877,2.819,6.545,9.057,3.727,13.934l-4.127,7.139
		C150.405,317.41,146.978,319.236,143.456,319.236z"/>
	<path style="fill:#4D4D4D;" d="M70.365,445.706c-1.732,0-3.486-0.442-5.094-1.37c-4.877-2.819-6.545-9.057-3.727-13.934
		l50.103-86.693c2.819-4.877,9.057-6.545,13.934-3.727c4.877,2.819,6.545,9.057,3.727,13.934L79.205,440.61
		C77.315,443.879,73.888,445.706,70.365,445.706z"/>
	<path style="fill:#4D4D4D;" d="M256,435.506c-20.933,0-37.963-17.031-37.963-37.963s17.031-37.963,37.963-37.963
		s37.964,17.031,37.964,37.963S276.933,435.506,256,435.506z M256,379.978c-9.686,0-17.565,7.88-17.565,17.565
		c0,9.685,7.879,17.565,17.565,17.565c9.686,0,17.566-7.88,17.566-17.565C273.566,387.858,265.686,379.978,256,379.978z"/>
	<path style="fill:#4D4D4D;" d="M271.673,349h-31.346c-12.291,0-22.29-9.999-22.29-22.29V187.518c0-12.291,9.999-22.29,22.29-22.29
		h31.346c12.291,0,22.29,9.999,22.29,22.29v139.192C293.964,338.999,283.964,349,271.673,349z M240.327,185.626
		c-1.043,0-1.892,0.849-1.892,1.892v139.192c0,1.043,0.849,1.892,1.892,1.892h31.346c1.043,0,1.892-0.849,1.892-1.892V187.518
		c0-1.043-0.849-1.892-1.892-1.892H240.327z"/>
</g>
</svg>