<?xml version="1.0" encoding="iso-8859-1"?>
<!-- Uploaded to: SVG Repo, www.svgrepo.com, Generator: SVG Repo Mixer Tools -->
<svg height="800px" width="800px" version="1.1" id="Layer_1" xmlns="http://www.w3.org/2000/svg" xmlns:xlink="http://www.w3.org/1999/xlink" 
	 viewBox="0 0 512 512" xml:space="preserve">
<path style="fill:#FF757C;" d="M256,370.231c-13.438,0-26.331-2.327-38.306-6.59l-44.121,123.979
	c25.768,9.171,53.511,14.18,82.427,14.18s56.659-5.009,82.427-14.18l-44.121-123.979C282.331,367.904,269.438,370.231,256,370.231z"
	/>
<path style="fill:#FBB429;" d="M363.641,217.694l123.979-44.121c-24.714-69.438-79.756-124.48-149.194-149.194l-44.121,123.979
	C326.576,159.844,352.156,185.424,363.641,217.694z"/>
<path style="fill:#FF757C;" d="M487.621,173.573l-123.979,44.121c4.262,11.975,6.59,24.868,6.59,38.306
	c0,13.438-2.327,26.331-6.59,38.306l123.979,44.121c9.171-25.768,14.18-53.511,14.18-82.427S496.792,199.341,487.621,173.573z"/>
<path style="fill:#FBB429;" d="M294.306,363.641l44.121,123.979c69.438-24.713,124.48-79.756,149.194-149.194l-123.979-44.121
	C352.156,326.576,326.576,352.156,294.306,363.641z"/>
<path style="fill:#FF757C;" d="M256,141.769c13.438,0,26.331,2.327,38.306,6.59l44.121-123.979
	c-25.768-9.171-53.511-14.18-82.427-14.18s-56.659,5.009-82.427,14.18l44.121,123.979C229.669,144.096,242.562,141.769,256,141.769z
	"/>
<g>
	<path style="fill:#FBB429;" d="M217.694,148.359L173.573,24.379c-69.438,24.713-124.48,79.756-149.194,149.194l123.979,44.121
		C159.844,185.424,185.424,159.844,217.694,148.359z"/>
	<path style="fill:#FBB429;" d="M148.359,294.306L24.379,338.427c24.714,69.438,79.756,124.48,149.194,149.194l44.121-123.979
		C185.424,352.156,159.844,326.576,148.359,294.306z"/>
</g>
<path style="fill:#FF757C;" d="M141.769,256c0-13.438,2.327-26.331,6.59-38.306L24.379,173.573
	c-9.171,25.768-14.18,53.511-14.18,82.427s5.009,56.659,14.18,82.427l123.979-44.121C144.096,282.331,141.769,269.438,141.769,256z"
	/>
<g>
	<path style="fill:#4D4D4D;" d="M430.406,0H81.594C36.603,0,0,36.603,0,81.594v348.813C0,475.397,36.603,512,81.594,512h348.813
		C475.397,512,512,475.397,512,430.406V81.594C512,36.603,475.397,0,430.406,0z M290.886,354.033
		c-11.185,3.981-22.923,5.999-34.886,5.999c-11.964,0-23.701-2.018-34.886-5.999c-29.594-10.533-52.609-33.546-63.144-63.138
		c0,0-0.001-0.005-0.002-0.007c-3.981-11.186-5.999-22.925-5.999-34.887s2.018-23.701,5.999-34.887
		c0.001-0.002,0.001-0.005,0.001-0.005c10.536-29.595,33.55-52.607,63.144-63.14c11.186-3.981,22.924-5.999,34.887-5.999
		s23.701,2.018,34.886,5.999c29.594,10.533,52.608,33.546,63.144,63.138c0,0,0.001,0.005,0.002,0.007
		c3.981,11.186,5.999,22.925,5.999,34.887s-2.018,23.701-5.999,34.887c-0.001,0.002-0.001,0.005-0.001,0.005
		C343.495,320.487,320.48,343.5,290.886,354.033z M135.725,287.978L30.776,325.325c-6.89-22.392-10.378-45.667-10.378-69.325
		s3.488-46.933,10.378-69.325l104.949,37.347c-2.76,10.395-4.155,21.11-4.155,31.978S132.965,277.583,135.725,287.978z
		 M376.275,224.022l104.949-37.347c6.89,22.392,10.378,45.667,10.378,69.325s-3.488,46.933-10.378,69.325l-104.949-37.347
		c2.76-10.395,4.155-21.11,4.155-31.978S379.035,234.417,376.275,224.022z M369.442,204.803
		c-12.48-27.73-34.514-49.765-62.245-62.245l37.347-104.946c59.275,23.991,105.852,70.568,129.843,129.844L369.442,204.803z
		 M325.325,30.777l-37.348,104.948c-10.394-2.76-21.109-4.155-31.977-4.155s-21.583,1.395-31.977,4.155L186.675,30.777
		c22.393-6.891,45.667-10.379,69.325-10.379S302.932,23.887,325.325,30.777z M167.456,37.613l37.347,104.946
		c-27.731,12.48-49.766,34.515-62.245,62.245L37.613,167.457C61.603,108.181,108.181,61.603,167.456,37.613z M142.558,307.197
		c12.48,27.73,34.514,49.765,62.245,62.245l-37.347,104.946c-59.275-23.991-105.852-70.568-129.843-129.844L142.558,307.197z
		 M186.675,481.223l37.348-104.948c10.394,2.76,21.109,4.155,31.977,4.155s21.583-1.395,31.977-4.155l37.348,104.948
		c-22.393,6.891-45.667,10.379-69.325,10.379S209.068,488.113,186.675,481.223z M344.544,474.387l-37.347-104.946
		c27.731-12.48,49.766-34.515,62.245-62.245l104.946,37.346C450.397,403.819,403.819,450.397,344.544,474.387z M491.602,81.594
		v74.209c-12.802-29.987-31.475-57.691-54.594-80.81c-23.12-23.121-50.825-41.792-80.811-54.594h74.21
		C464.149,20.398,491.602,47.851,491.602,81.594z M81.594,20.398h74.21C125.817,33.2,98.112,51.872,74.993,74.992
		c-23.12,23.121-41.792,50.825-54.594,80.811V81.594C20.398,47.851,47.851,20.398,81.594,20.398z M20.398,430.406v-74.209
		c12.802,29.987,31.475,57.691,54.594,80.81c23.12,23.12,50.825,41.792,80.811,54.593h-74.21
		C47.851,491.602,20.398,464.149,20.398,430.406z M430.406,491.602h-74.21c29.987-12.802,57.691-31.474,80.811-54.593
		c23.12-23.12,41.792-50.825,54.594-80.81v74.208C491.602,464.149,464.149,491.602,430.406,491.602z"/>
	<path style="fill:#4D4D4D;" d="M445.95,167.27c1.154,0,2.326-0.197,3.474-0.613l2.815-1.02c5.295-1.919,8.034-7.768,6.115-13.064
		s-7.768-8.035-13.063-6.115l-2.815,1.02c-5.295,1.919-8.034,7.768-6.115,13.064C437.864,164.692,441.779,167.27,445.95,167.27z"/>
	<path style="fill:#4D4D4D;" d="M411.511,158.698l-36.595,13.259c-5.296,1.919-8.034,7.768-6.115,13.064
		c1.503,4.149,5.418,6.728,9.589,6.728c1.154,0,2.327-0.197,3.474-0.613l36.595-13.259c5.296-1.919,8.034-7.768,6.115-13.064
		C422.656,159.516,416.806,156.779,411.511,158.698z"/>
</g>
</svg>